<svg width="120" height="40" viewBox="0 0 120 40" fill="none" xmlns="http://www.w3.org/2000/svg">
<path d="M18.3476 17.0046C18.9521 13.6355 19.5566 10.3693 20.1309 7.08847H27.204C27.1738 7.33858 25.7078 15.401 24.7254 20.9181C24.2418 23.6399 21.8085 25.6408 18.9521 25.6408C16.9269 25.6408 15.0831 24.6256 13.9798 22.9779C12.1058 20.0795 9.38536 15.8718 9.30979 15.7246C8.70526 19.0938 8.10072 22.3599 7.52642 25.6114H0.453369C0.544049 25.0817 2.04027 17.034 3.02264 11.7229C3.50627 9.0158 5.93951 7.07376 8.73548 7.07376C10.7304 7.07376 12.6045 8.08892 13.6775 9.72199C15.5214 12.6203 18.272 16.8575 18.3476 17.0046Z" fill="#1D5A60"/>
<path d="M47.7127 20.3149C47.3954 22.0804 47.078 23.8311 46.7606 25.5672C40.8232 25.5672 34.9093 25.5672 28.9773 25.5672C27.7408 25.5672 26.8005 24.4563 27.0273 23.2407C27.1289 22.696 27.2331 22.1541 27.3399 21.6096C27.7178 19.5351 28.0956 17.4459 28.4734 15.3715C28.942 12.7821 29.4256 10.2075 29.8941 7.61807C29.9848 7.08842 30.015 7.08842 30.5591 7.08842C36.9067 7.08842 43.2694 7.08842 49.617 7.08842C49.7833 7.08842 49.9344 7.08842 50.1611 7.08842C49.8437 8.85391 49.5263 10.6047 49.209 12.3702C44.8563 12.3702 40.4886 12.3702 36.1359 12.3702C36.0452 12.8998 35.9697 13.4442 35.8488 14.0032C40.1258 14.0032 44.3727 14.0032 48.6649 14.0032C48.3777 15.6069 48.0906 17.1517 47.8034 18.7554C43.5263 18.7554 39.2795 18.7554 34.9873 18.7554C34.8966 19.285 34.7908 19.7999 34.6699 20.359C39.0226 20.3149 43.3299 20.3149 47.7127 20.3149Z" fill="#1D5A60"/>
</svg>
