<svg width="480" height="647" viewBox="0 0 480 647" fill="none" xmlns="http://www.w3.org/2000/svg">
<path d="M-339.28 624.444C-361.292 595.487 -387.255 531.577 -315.011 507.589C-224.707 477.605 -100.488 586.29 -50.838 549.274C-1.18829 512.257 -130.043 420.489 -96.2971 385.664C-62.5517 350.84 16.2359 418.884 47.3731 415.178C78.5104 411.472 84.6873 393.492 77.794 370.24C70.9008 346.988 -45.1762 239.138 27.0674 215.15C117.372 185.166 303.163 363.66 363.944 335.097C420.526 308.506 341.645 208.841 326.283 171.635C310.921 134.43 301.62 68.3113 375.82 57.8199C429.332 50.2536 474.043 104.699 527.112 72.0201C580.18 39.3407 556.086 -4.86177 548.675 -76.3755C541.265 -147.889 589.916 -188.711 724.411 -76.2654" stroke="#CAEDC9" stroke-width="45" stroke-linecap="round" stroke-linejoin="round"/>
</svg>
