<svg width="24" height="24" viewBox="0 0 24 24" fill="none" xmlns="http://www.w3.org/2000/svg">
<path d="M3.51562 9H20.4844M3.51562 15H20.4844M21 12C21 16.9706 16.9706 21 12 21C7.02944 21 3 16.9706 3 12C3 7.02944 7.02944 3 12 3C16.9706 3 21 7.02944 21 12ZM15.75 12C15.75 16.8359 14.0711 20.7562 12 20.7562C9.92893 20.7562 8.25 16.8359 8.25 12C8.25 7.16406 9.92893 3.24375 12 3.24375C14.0711 3.24375 15.75 7.16406 15.75 12Z" stroke="#1D5A60" stroke-width="1.5" stroke-miterlimit="10" stroke-linecap="round"/>
</svg>
