<svg width="107" height="88" viewBox="0 0 107 88" fill="none" xmlns="http://www.w3.org/2000/svg">
<path d="M42.413 44.5867L45.3463 41.6534M24.7063 62.2933L21.773 65.2267M21.7356 55.0454C21.2503 57.056 21.6876 59.2214 23.261 60.7947L26.4876 64.0214C28.7703 66.304 32.4716 66.304 34.7543 64.0214C36.6476 62.128 37.0156 59.184 35.6343 56.8854L31.501 49.984C30.125 47.6854 30.4876 44.7413 32.381 42.848C34.6636 40.5653 38.365 40.5653 40.6476 42.848L43.8743 46.0747C45.4423 47.6427 45.8796 49.8027 45.405 51.808M51.0637 1.33334H74.4503C80.6477 1.33334 85.6663 6.35201 85.6663 12.544V35.9307C85.6663 38.9067 84.4823 41.7547 82.381 43.8614L37.5276 88.7147C33.149 93.0934 26.0503 93.0934 21.6716 88.7147L-1.71502 65.328C-6.09369 60.9493 -6.09369 53.8507 -1.71502 49.472L43.1383 4.61868C45.2396 2.51734 48.093 1.33334 51.0637 1.33334Z" stroke="#1D5A60" stroke-width="6" stroke-linecap="round" stroke-linejoin="round"/>
<path d="M63.306 23.6942C64.0787 24.4669 64.0787 25.7197 63.306 26.4924C62.5333 27.2652 61.2805 27.2652 60.5078 26.4924C59.7351 25.7197 59.7351 24.4669 60.5078 23.6942C61.2805 22.9215 62.5333 22.9215 63.306 23.6942" stroke="#1D5A60" stroke-width="6" stroke-linecap="round" stroke-linejoin="round"/>
</svg>
