<svg width="24" height="24" viewBox="0 0 24 24" fill="none" xmlns="http://www.w3.org/2000/svg">
<path d="M5.74002 11.26L2.80002 8.31999C2.39999 7.91943 2.39999 7.27056 2.80002 6.86999L5.87002 3.79999C6.27058 3.39997 6.91945 3.39997 7.32002 3.79999L9.26002 5.73999M18.26 14.74L20.2 16.68C20.6 17.0806 20.6 17.7294 20.2 18.13L17.13 21.2C16.7295 21.6 16.0806 21.6 15.68 21.2L12.74 18.26M11.7664 9.10206L4.1486 16.7199C3.58812 17.2791 3.36883 18.0949 3.57345 18.8598C3.77807 19.6246 4.37546 20.222 5.14029 20.4266C5.90512 20.6312 6.721 20.4119 7.28019 19.8515L14.898 12.2337C16.1664 12.6667 17.556 12.5698 18.7521 11.9651C19.9482 11.3603 20.8499 10.2987 21.2532 9.02052C21.4664 8.37944 21.5423 7.70068 21.4761 7.02833C21.4257 6.65067 21.1646 6.3347 20.8032 6.21401C20.4418 6.09331 20.0432 6.18896 19.7759 6.46052L17.9718 8.26466C17.7766 8.45992 17.46 8.45992 17.2647 8.26466L15.7354 6.7353C15.6416 6.64155 15.5889 6.51437 15.5889 6.38176C15.5889 6.24915 15.6416 6.12197 15.7354 6.02821L17.5396 4.22407C17.8111 3.9568 17.9068 3.55821 17.7861 3.19681C17.6654 2.83542 17.3494 2.57431 16.9717 2.52387C16.2994 2.4577 15.6206 2.53364 14.9795 2.74677C13.7013 3.15009 12.6397 4.05182 12.035 5.24797C11.4302 6.44411 11.3334 7.83359 11.7664 9.10206Z" stroke="#1D5A60" stroke-width="1.5" stroke-linecap="round" stroke-linejoin="round"/>
</svg>
