<svg width="24" height="24" viewBox="0 0 24 24" fill="none" xmlns="http://www.w3.org/2000/svg">
<path d="M18.5027 6.95113L16.1369 3.79672C15.4998 2.94719 14.31 2.74338 13.4264 3.33243L7.92816 6.99791M21.0038 11.4998H18.5027C17.1214 11.4998 16.0017 12.6195 16.0017 14.0008C16.0017 15.3821 17.1214 16.5019 18.5027 16.5019H21.0038M21.0038 11.4998C21.5563 11.4998 22.0042 11.9477 22.0042 12.5002V15.5015C22.0042 16.054 21.5563 16.5019 21.0038 16.5019M21.0038 11.4998V9.49895C21.0038 8.11767 19.884 6.99791 18.5027 6.99791H5.49731C4.11602 6.99791 2.99627 8.11767 2.99627 9.49895V12M21.0038 16.5019V18.5027C21.0038 19.884 19.884 21.0037 18.5027 21.0037H12M7.34308 17.2102L5.66238 18.8899L4.65196 17.8824M9.99918 18.0025C9.99918 20.2126 8.20758 22.0042 5.99752 22.0042C3.78746 22.0042 1.99585 20.2126 1.99585 18.0025C1.99585 15.7924 3.78746 14.0008 5.99752 14.0008C8.20758 14.0008 9.99918 15.7924 9.99918 18.0025Z" stroke="#1D5A60" stroke-width="1.5" stroke-linecap="round" stroke-linejoin="round"/>
</svg>
