<svg width="56" height="56" viewBox="0 0 56 56" fill="none" xmlns="http://www.w3.org/2000/svg">
<path d="M35 7V19.8333M35 19.8333C32.4227 19.8333 30.3333 21.9227 30.3333 24.5C30.3333 27.0773 32.4227 29.1667 35 29.1667M35 19.8333C37.5773 19.8333 39.6667 21.9227 39.6667 24.5C39.6667 27.0773 37.5773 29.1667 35 29.1667M35 29.1667V49M39.5475 25.5475L49 35M30.45 25.5383L21 35L14 28L7 35M18.6667 49H37.3333C43.7767 49 49 43.7767 49 37.3333V18.6667C49 12.2233 43.7767 7 37.3333 7H18.6667C12.2233 7 7 12.2233 7 18.6667V37.3333C7 43.7767 12.2233 49 18.6667 49Z" stroke="#1D5A60" stroke-width="2" stroke-linecap="round" stroke-linejoin="round"/>
</svg>
