<svg width="24" height="24" viewBox="0 0 24 24" fill="none" xmlns="http://www.w3.org/2000/svg">
<path d="M15 21V21.75C15.4142 21.75 15.75 21.4142 15.75 21H15ZM9 21H8.25C8.25 21.4142 8.58579 21.75 9 21.75V21ZM19.842 8.29901L19.3815 8.891L19.3818 8.89124L19.842 8.29901ZM13.842 3.63201L13.3813 4.22384L13.3815 4.224L13.842 3.63201ZM10.158 3.63201L9.69758 3.03996L9.69752 3.04001L10.158 3.63201ZM4.158 8.29901L4.61818 8.89124L4.61848 8.891L4.158 8.29901ZM11.75 13.75H12.25V12.25H11.75V13.75ZM12.25 13.75C13.3546 13.75 14.25 14.6454 14.25 15.75H15.75C15.75 13.817 14.183 12.25 12.25 12.25V13.75ZM14.25 15.75V21H15.75V15.75H14.25ZM15 20.25H9V21.75H15V20.25ZM9.75 21V15.75H8.25V21H9.75ZM9.75 15.75C9.75 14.6454 10.6454 13.75 11.75 13.75V12.25C9.817 12.25 8.25 13.817 8.25 15.75H9.75ZM20.3025 7.70701L14.3025 3.04001L13.3815 4.224L19.3815 8.891L20.3025 7.70701ZM14.3027 3.04017C12.9486 1.98619 11.0523 1.98645 9.69758 3.03996L10.6184 4.22405C11.4317 3.59156 12.5694 3.59182 13.3813 4.22384L14.3027 3.04017ZM9.69752 3.04001L3.69752 7.70701L4.61848 8.891L10.6185 4.224L9.69752 3.04001ZM3.69783 7.70677C2.78363 8.41712 2.25 9.50987 2.25 10.667H3.75C3.75 9.97214 4.07037 9.31689 4.61817 8.89124L3.69783 7.70677ZM2.25 10.667V18H3.75V10.667H2.25ZM2.25 18C2.25 20.0712 3.92879 21.75 6 21.75V20.25C4.75721 20.25 3.75 19.2428 3.75 18H2.25ZM6 21.75H18V20.25H6V21.75ZM18 21.75C20.0712 21.75 21.75 20.0712 21.75 18H20.25C20.25 19.2428 19.2428 20.25 18 20.25V21.75ZM21.75 18V10.667H20.25V18H21.75ZM21.75 10.667C21.75 9.50987 21.2164 8.41712 20.3022 7.70677L19.3818 8.89124C19.9296 9.31689 20.25 9.97214 20.25 10.667H21.75Z" fill="#1D5A60"/>
</svg>
