<svg width="24" height="24" viewBox="0 0 24 24" fill="none" xmlns="http://www.w3.org/2000/svg">
<path d="M16.0016 13.0003V17.3841C16.0016 17.7631 15.7875 18.1095 15.4486 18.2789L13.0316 19.4874C12.7722 19.6171 12.4693 19.6279 12.2014 19.5169C11.9334 19.4059 11.7269 19.1841 11.6351 18.909L10.9995 17.002M6.99782 13.0003L5.09087 12.3647C4.81574 12.2729 4.59395 12.0664 4.48297 11.7984C4.37198 11.5305 4.38273 11.2276 4.51243 10.9682L5.72093 8.55124C5.89038 8.21234 6.23676 7.99822 6.61566 7.99822H10.9995M17.0977 12.1234L11.6987 16.4426C11.3006 16.7611 10.7268 16.7293 10.3663 16.3688L7.63098 13.6335C7.27052 13.273 7.23874 12.6992 7.55718 12.3011L11.8764 6.90211C13.8514 4.4333 16.8416 2.99614 20.0032 2.99614C20.5558 2.99614 21.0037 3.44404 21.0037 3.99656C21.0037 7.15817 19.5665 10.1484 17.0977 12.1234ZM5.7474 20.5903L2.99615 21.0036L3.40948 18.2524C3.54356 17.3599 4.24418 16.6593 5.13669 16.5252C5.78164 16.4283 6.4343 16.6432 6.89547 17.1044C7.35664 17.5655 7.57157 18.2182 7.47466 18.8632C7.34055 19.7557 6.63991 20.4563 5.7474 20.5903Z" stroke="#1D5A60" stroke-width="1.5" stroke-linecap="round" stroke-linejoin="round"/>
</svg>
